<mxfile host="app.diagrams.net" agent="Mozilla/5.0 (Windows NT 10.0; Win64; x64) AppleWebKit/537.36 (KHTML, like Gecko) Chrome/129.0.0.0 Safari/537.36 Edg/129.0.0.0" version="24.7.17">
  <diagram name="PÃ¡gina-1" id="uYdXZuUL9aj5p48DHiQX">
    <mxGraphModel dx="4300" dy="1777" grid="1" gridSize="10" guides="1" tooltips="1" connect="1" arrows="1" fold="1" page="1" pageScale="1" pageWidth="827" pageHeight="1169" math="0" shadow="0">
      <root>
        <mxCell id="0" />
        <mxCell id="1" parent="0" />
        <mxCell id="p1zaCwSeMi8rl18aPiy3-2" value="Account" style="swimlane;fontStyle=0;childLayout=stackLayout;horizontal=1;startSize=26;fillColor=none;horizontalStack=0;resizeParent=1;resizeParentMax=0;resizeLast=0;collapsible=1;marginBottom=0;html=1;" parent="1" vertex="1">
          <mxGeometry x="-820" y="1340" width="170" height="208" as="geometry" />
        </mxCell>
        <mxCell id="p1zaCwSeMi8rl18aPiy3-3" value="- accountID: uint" style="text;strokeColor=none;fillColor=none;align=left;verticalAlign=top;spacingLeft=4;spacingRight=4;overflow=hidden;rotatable=0;points=[[0,0.5],[1,0.5]];portConstraint=eastwest;whiteSpace=wrap;html=1;" parent="p1zaCwSeMi8rl18aPiy3-2" vertex="1">
          <mxGeometry y="26" width="170" height="26" as="geometry" />
        </mxCell>
        <mxCell id="p1zaCwSeMi8rl18aPiy3-4" value="- name: string" style="text;strokeColor=none;fillColor=none;align=left;verticalAlign=top;spacingLeft=4;spacingRight=4;overflow=hidden;rotatable=0;points=[[0,0.5],[1,0.5]];portConstraint=eastwest;whiteSpace=wrap;html=1;" parent="p1zaCwSeMi8rl18aPiy3-2" vertex="1">
          <mxGeometry y="52" width="170" height="26" as="geometry" />
        </mxCell>
        <mxCell id="p1zaCwSeMi8rl18aPiy3-5" value="- email: string" style="text;strokeColor=none;fillColor=none;align=left;verticalAlign=top;spacingLeft=4;spacingRight=4;overflow=hidden;rotatable=0;points=[[0,0.5],[1,0.5]];portConstraint=eastwest;whiteSpace=wrap;html=1;" parent="p1zaCwSeMi8rl18aPiy3-2" vertex="1">
          <mxGeometry y="78" width="170" height="26" as="geometry" />
        </mxCell>
        <mxCell id="p1zaCwSeMi8rl18aPiy3-6" value="- phone: int" style="text;strokeColor=none;fillColor=none;align=left;verticalAlign=top;spacingLeft=4;spacingRight=4;overflow=hidden;rotatable=0;points=[[0,0.5],[1,0.5]];portConstraint=eastwest;whiteSpace=wrap;html=1;" parent="p1zaCwSeMi8rl18aPiy3-2" vertex="1">
          <mxGeometry y="104" width="170" height="26" as="geometry" />
        </mxCell>
        <mxCell id="p1zaCwSeMi8rl18aPiy3-7" value="- age: byte" style="text;strokeColor=none;fillColor=none;align=left;verticalAlign=top;spacingLeft=4;spacingRight=4;overflow=hidden;rotatable=0;points=[[0,0.5],[1,0.5]];portConstraint=eastwest;whiteSpace=wrap;html=1;" parent="p1zaCwSeMi8rl18aPiy3-2" vertex="1">
          <mxGeometry y="130" width="170" height="26" as="geometry" />
        </mxCell>
        <mxCell id="bhC0orewa9x7vYe9hUTq-23" value="" style="endArrow=none;html=1;rounded=0;entryX=0.993;entryY=0.974;entryDx=0;entryDy=0;entryPerimeter=0;" parent="p1zaCwSeMi8rl18aPiy3-2" target="p1zaCwSeMi8rl18aPiy3-8" edge="1">
          <mxGeometry width="50" height="50" relative="1" as="geometry">
            <mxPoint y="182" as="sourcePoint" />
            <mxPoint x="50" y="132" as="targetPoint" />
          </mxGeometry>
        </mxCell>
        <mxCell id="p1zaCwSeMi8rl18aPiy3-8" value="- gender: string" style="text;strokeColor=none;fillColor=none;align=left;verticalAlign=top;spacingLeft=4;spacingRight=4;overflow=hidden;rotatable=0;points=[[0,0.5],[1,0.5]];portConstraint=eastwest;whiteSpace=wrap;html=1;" parent="p1zaCwSeMi8rl18aPiy3-2" vertex="1">
          <mxGeometry y="156" width="170" height="26" as="geometry" />
        </mxCell>
        <mxCell id="bhC0orewa9x7vYe9hUTq-8" value="+ ManageAccount(): void" style="text;strokeColor=none;fillColor=none;align=left;verticalAlign=top;spacingLeft=4;spacingRight=4;overflow=hidden;rotatable=0;points=[[0,0.5],[1,0.5]];portConstraint=eastwest;whiteSpace=wrap;html=1;" parent="p1zaCwSeMi8rl18aPiy3-2" vertex="1">
          <mxGeometry y="182" width="170" height="26" as="geometry" />
        </mxCell>
        <mxCell id="p1zaCwSeMi8rl18aPiy3-9" value="GymMember" style="swimlane;fontStyle=0;childLayout=stackLayout;horizontal=1;startSize=26;fillColor=none;horizontalStack=0;resizeParent=1;resizeParentMax=0;resizeLast=0;collapsible=1;marginBottom=0;html=1;" parent="1" vertex="1">
          <mxGeometry x="-460" y="1366" width="170" height="182" as="geometry" />
        </mxCell>
        <mxCell id="p1zaCwSeMi8rl18aPiy3-10" value="- memberID: uint" style="text;strokeColor=none;fillColor=none;align=left;verticalAlign=top;spacingLeft=4;spacingRight=4;overflow=hidden;rotatable=0;points=[[0,0.5],[1,0.5]];portConstraint=eastwest;whiteSpace=wrap;html=1;" parent="p1zaCwSeMi8rl18aPiy3-9" vertex="1">
          <mxGeometry y="26" width="170" height="26" as="geometry" />
        </mxCell>
        <mxCell id="p1zaCwSeMi8rl18aPiy3-11" value="- memberShip: string" style="text;strokeColor=none;fillColor=none;align=left;verticalAlign=top;spacingLeft=4;spacingRight=4;overflow=hidden;rotatable=0;points=[[0,0.5],[1,0.5]];portConstraint=eastwest;whiteSpace=wrap;html=1;" parent="p1zaCwSeMi8rl18aPiy3-9" vertex="1">
          <mxGeometry y="52" width="170" height="26" as="geometry" />
        </mxCell>
        <mxCell id="bhC0orewa9x7vYe9hUTq-1" value="+ BookSession(class id): void" style="text;strokeColor=none;fillColor=none;align=left;verticalAlign=top;spacingLeft=4;spacingRight=4;overflow=hidden;rotatable=0;points=[[0,0.5],[1,0.5]];portConstraint=eastwest;whiteSpace=wrap;html=1;" parent="p1zaCwSeMi8rl18aPiy3-9" vertex="1">
          <mxGeometry y="78" width="170" height="26" as="geometry" />
        </mxCell>
        <mxCell id="bhC0orewa9x7vYe9hUTq-2" value="+ SchedApp(appointID): void" style="text;strokeColor=none;fillColor=none;align=left;verticalAlign=top;spacingLeft=4;spacingRight=4;overflow=hidden;rotatable=0;points=[[0,0.5],[1,0.5]];portConstraint=eastwest;whiteSpace=wrap;html=1;" parent="p1zaCwSeMi8rl18aPiy3-9" vertex="1">
          <mxGeometry y="104" width="170" height="26" as="geometry" />
        </mxCell>
        <mxCell id="bhC0orewa9x7vYe9hUTq-3" value="+ ReceiveNotif(): void" style="text;strokeColor=none;fillColor=none;align=left;verticalAlign=top;spacingLeft=4;spacingRight=4;overflow=hidden;rotatable=0;points=[[0,0.5],[1,0.5]];portConstraint=eastwest;whiteSpace=wrap;html=1;" parent="p1zaCwSeMi8rl18aPiy3-9" vertex="1">
          <mxGeometry y="130" width="170" height="26" as="geometry" />
        </mxCell>
        <mxCell id="bhC0orewa9x7vYe9hUTq-4" value="+ ProvideFeedback():voiod" style="text;strokeColor=none;fillColor=none;align=left;verticalAlign=top;spacingLeft=4;spacingRight=4;overflow=hidden;rotatable=0;points=[[0,0.5],[1,0.5]];portConstraint=eastwest;whiteSpace=wrap;html=1;" parent="p1zaCwSeMi8rl18aPiy3-9" vertex="1">
          <mxGeometry y="156" width="170" height="26" as="geometry" />
        </mxCell>
        <mxCell id="bhC0orewa9x7vYe9hUTq-24" value="" style="endArrow=none;html=1;rounded=0;entryX=1.003;entryY=-0.051;entryDx=0;entryDy=0;entryPerimeter=0;exitX=0.004;exitY=-0.085;exitDx=0;exitDy=0;exitPerimeter=0;" parent="p1zaCwSeMi8rl18aPiy3-9" source="bhC0orewa9x7vYe9hUTq-1" target="bhC0orewa9x7vYe9hUTq-1" edge="1">
          <mxGeometry width="50" height="50" relative="1" as="geometry">
            <mxPoint y="164" as="sourcePoint" />
            <mxPoint x="50" y="114" as="targetPoint" />
          </mxGeometry>
        </mxCell>
        <mxCell id="p1zaCwSeMi8rl18aPiy3-15" value="HealthSpecialist" style="swimlane;fontStyle=0;childLayout=stackLayout;horizontal=1;startSize=26;fillColor=none;horizontalStack=0;resizeParent=1;resizeParentMax=0;resizeLast=0;collapsible=1;marginBottom=0;html=1;" parent="1" vertex="1">
          <mxGeometry x="-470" y="1770" width="170" height="208" as="geometry" />
        </mxCell>
        <mxCell id="p1zaCwSeMi8rl18aPiy3-16" value="- specialistID: uint" style="text;strokeColor=none;fillColor=none;align=left;verticalAlign=top;spacingLeft=4;spacingRight=4;overflow=hidden;rotatable=0;points=[[0,0.5],[1,0.5]];portConstraint=eastwest;whiteSpace=wrap;html=1;" parent="p1zaCwSeMi8rl18aPiy3-15" vertex="1">
          <mxGeometry y="26" width="170" height="26" as="geometry" />
        </mxCell>
        <mxCell id="p1zaCwSeMi8rl18aPiy3-21" value="- availability: DateTime" style="text;strokeColor=none;fillColor=none;align=left;verticalAlign=top;spacingLeft=4;spacingRight=4;overflow=hidden;rotatable=0;points=[[0,0.5],[1,0.5]];portConstraint=eastwest;whiteSpace=wrap;html=1;" parent="p1zaCwSeMi8rl18aPiy3-15" vertex="1">
          <mxGeometry y="52" width="170" height="26" as="geometry" />
        </mxCell>
        <mxCell id="p1zaCwSeMi8rl18aPiy3-103" value="- type: string" style="text;strokeColor=none;fillColor=none;align=left;verticalAlign=top;spacingLeft=4;spacingRight=4;overflow=hidden;rotatable=0;points=[[0,0.5],[1,0.5]];portConstraint=eastwest;whiteSpace=wrap;html=1;" parent="p1zaCwSeMi8rl18aPiy3-15" vertex="1">
          <mxGeometry y="78" width="170" height="26" as="geometry" />
        </mxCell>
        <mxCell id="bhC0orewa9x7vYe9hUTq-19" value="+ SpecializedServices(): void" style="text;strokeColor=none;fillColor=none;align=left;verticalAlign=top;spacingLeft=4;spacingRight=4;overflow=hidden;rotatable=0;points=[[0,0.5],[1,0.5]];portConstraint=eastwest;whiteSpace=wrap;html=1;" parent="p1zaCwSeMi8rl18aPiy3-15" vertex="1">
          <mxGeometry y="104" width="170" height="26" as="geometry" />
        </mxCell>
        <mxCell id="bhC0orewa9x7vYe9hUTq-20" value="+ ManageAppoint(): void" style="text;strokeColor=none;fillColor=none;align=left;verticalAlign=top;spacingLeft=4;spacingRight=4;overflow=hidden;rotatable=0;points=[[0,0.5],[1,0.5]];portConstraint=eastwest;whiteSpace=wrap;html=1;" parent="p1zaCwSeMi8rl18aPiy3-15" vertex="1">
          <mxGeometry y="130" width="170" height="26" as="geometry" />
        </mxCell>
        <mxCell id="bhC0orewa9x7vYe9hUTq-21" value="+ ReceiveNotifi(): void" style="text;strokeColor=none;fillColor=none;align=left;verticalAlign=top;spacingLeft=4;spacingRight=4;overflow=hidden;rotatable=0;points=[[0,0.5],[1,0.5]];portConstraint=eastwest;whiteSpace=wrap;html=1;" parent="p1zaCwSeMi8rl18aPiy3-15" vertex="1">
          <mxGeometry y="156" width="170" height="26" as="geometry" />
        </mxCell>
        <mxCell id="bhC0orewa9x7vYe9hUTq-22" value="+ ReceiveFeedback(): void" style="text;strokeColor=none;fillColor=none;align=left;verticalAlign=top;spacingLeft=4;spacingRight=4;overflow=hidden;rotatable=0;points=[[0,0.5],[1,0.5]];portConstraint=eastwest;whiteSpace=wrap;html=1;" parent="p1zaCwSeMi8rl18aPiy3-15" vertex="1">
          <mxGeometry y="182" width="170" height="26" as="geometry" />
        </mxCell>
        <mxCell id="bhC0orewa9x7vYe9hUTq-25" value="" style="endArrow=none;html=1;rounded=0;entryX=0.992;entryY=1.028;entryDx=0;entryDy=0;entryPerimeter=0;exitX=0.006;exitY=0.006;exitDx=0;exitDy=0;exitPerimeter=0;" parent="p1zaCwSeMi8rl18aPiy3-15" source="bhC0orewa9x7vYe9hUTq-19" target="p1zaCwSeMi8rl18aPiy3-103" edge="1">
          <mxGeometry width="50" height="50" relative="1" as="geometry">
            <mxPoint x="-20" y="140" as="sourcePoint" />
            <mxPoint x="30" y="90" as="targetPoint" />
          </mxGeometry>
        </mxCell>
        <mxCell id="p1zaCwSeMi8rl18aPiy3-22" value="Instructor" style="swimlane;fontStyle=0;childLayout=stackLayout;horizontal=1;startSize=26;fillColor=none;horizontalStack=0;resizeParent=1;resizeParentMax=0;resizeLast=0;collapsible=1;marginBottom=0;html=1;" parent="1" vertex="1">
          <mxGeometry x="-460" y="984" width="170" height="208" as="geometry" />
        </mxCell>
        <mxCell id="p1zaCwSeMi8rl18aPiy3-23" value="- instructorID: uint" style="text;strokeColor=none;fillColor=none;align=left;verticalAlign=top;spacingLeft=4;spacingRight=4;overflow=hidden;rotatable=0;points=[[0,0.5],[1,0.5]];portConstraint=eastwest;whiteSpace=wrap;html=1;" parent="p1zaCwSeMi8rl18aPiy3-22" vertex="1">
          <mxGeometry y="26" width="170" height="26" as="geometry" />
        </mxCell>
        <mxCell id="p1zaCwSeMi8rl18aPiy3-25" value="- specialization: string" style="text;strokeColor=none;fillColor=none;align=left;verticalAlign=top;spacingLeft=4;spacingRight=4;overflow=hidden;rotatable=0;points=[[0,0.5],[1,0.5]];portConstraint=eastwest;whiteSpace=wrap;html=1;" parent="p1zaCwSeMi8rl18aPiy3-22" vertex="1">
          <mxGeometry y="52" width="170" height="26" as="geometry" />
        </mxCell>
        <mxCell id="p1zaCwSeMi8rl18aPiy3-60" value="- schedule: DateTime" style="text;strokeColor=none;fillColor=none;align=left;verticalAlign=top;spacingLeft=4;spacingRight=4;overflow=hidden;rotatable=0;points=[[0,0.5],[1,0.5]];portConstraint=eastwest;whiteSpace=wrap;html=1;" parent="p1zaCwSeMi8rl18aPiy3-22" vertex="1">
          <mxGeometry y="78" width="170" height="26" as="geometry" />
        </mxCell>
        <mxCell id="bhC0orewa9x7vYe9hUTq-11" value="+ LeadSession(class ID): void" style="text;strokeColor=none;fillColor=none;align=left;verticalAlign=top;spacingLeft=4;spacingRight=4;overflow=hidden;rotatable=0;points=[[0,0.5],[1,0.5]];portConstraint=eastwest;whiteSpace=wrap;html=1;" parent="p1zaCwSeMi8rl18aPiy3-22" vertex="1">
          <mxGeometry y="104" width="170" height="26" as="geometry" />
        </mxCell>
        <mxCell id="bhC0orewa9x7vYe9hUTq-12" value="+ UpdateSchedule(): void" style="text;strokeColor=none;fillColor=none;align=left;verticalAlign=top;spacingLeft=4;spacingRight=4;overflow=hidden;rotatable=0;points=[[0,0.5],[1,0.5]];portConstraint=eastwest;whiteSpace=wrap;html=1;" parent="p1zaCwSeMi8rl18aPiy3-22" vertex="1">
          <mxGeometry y="130" width="170" height="26" as="geometry" />
        </mxCell>
        <mxCell id="bhC0orewa9x7vYe9hUTq-13" value="+ ReceiveNotification(): void" style="text;strokeColor=none;fillColor=none;align=left;verticalAlign=top;spacingLeft=4;spacingRight=4;overflow=hidden;rotatable=0;points=[[0,0.5],[1,0.5]];portConstraint=eastwest;whiteSpace=wrap;html=1;" parent="p1zaCwSeMi8rl18aPiy3-22" vertex="1">
          <mxGeometry y="156" width="170" height="26" as="geometry" />
        </mxCell>
        <mxCell id="bhC0orewa9x7vYe9hUTq-14" value="+ ReceiveFeedback():void" style="text;strokeColor=none;fillColor=none;align=left;verticalAlign=top;spacingLeft=4;spacingRight=4;overflow=hidden;rotatable=0;points=[[0,0.5],[1,0.5]];portConstraint=eastwest;whiteSpace=wrap;html=1;" parent="p1zaCwSeMi8rl18aPiy3-22" vertex="1">
          <mxGeometry y="182" width="170" height="26" as="geometry" />
        </mxCell>
        <mxCell id="bhC0orewa9x7vYe9hUTq-30" value="" style="endArrow=none;html=1;rounded=0;entryX=1.003;entryY=0.061;entryDx=0;entryDy=0;entryPerimeter=0;exitX=0;exitY=1.019;exitDx=0;exitDy=0;exitPerimeter=0;" parent="p1zaCwSeMi8rl18aPiy3-22" source="p1zaCwSeMi8rl18aPiy3-60" target="bhC0orewa9x7vYe9hUTq-11" edge="1">
          <mxGeometry width="50" height="50" relative="1" as="geometry">
            <mxPoint x="70" y="176" as="sourcePoint" />
            <mxPoint x="120" y="126" as="targetPoint" />
          </mxGeometry>
        </mxCell>
        <mxCell id="p1zaCwSeMi8rl18aPiy3-29" value="GymSessions" style="swimlane;fontStyle=0;childLayout=stackLayout;horizontal=1;startSize=26;fillColor=none;horizontalStack=0;resizeParent=1;resizeParentMax=0;resizeLast=0;collapsible=1;marginBottom=0;html=1;" parent="1" vertex="1">
          <mxGeometry x="-40" y="1010" width="160" height="260" as="geometry" />
        </mxCell>
        <mxCell id="p1zaCwSeMi8rl18aPiy3-30" value="- classID: uint" style="text;strokeColor=none;fillColor=none;align=left;verticalAlign=top;spacingLeft=4;spacingRight=4;overflow=hidden;rotatable=0;points=[[0,0.5],[1,0.5]];portConstraint=eastwest;whiteSpace=wrap;html=1;" parent="p1zaCwSeMi8rl18aPiy3-29" vertex="1">
          <mxGeometry y="26" width="160" height="26" as="geometry" />
        </mxCell>
        <mxCell id="p1zaCwSeMi8rl18aPiy3-31" value="- className: string" style="text;strokeColor=none;fillColor=none;align=left;verticalAlign=top;spacingLeft=4;spacingRight=4;overflow=hidden;rotatable=0;points=[[0,0.5],[1,0.5]];portConstraint=eastwest;whiteSpace=wrap;html=1;" parent="p1zaCwSeMi8rl18aPiy3-29" vertex="1">
          <mxGeometry y="52" width="160" height="26" as="geometry" />
        </mxCell>
        <mxCell id="p1zaCwSeMi8rl18aPiy3-32" value="- instructorID: uint" style="text;strokeColor=none;fillColor=none;align=left;verticalAlign=top;spacingLeft=4;spacingRight=4;overflow=hidden;rotatable=0;points=[[0,0.5],[1,0.5]];portConstraint=eastwest;whiteSpace=wrap;html=1;" parent="p1zaCwSeMi8rl18aPiy3-29" vertex="1">
          <mxGeometry y="78" width="160" height="26" as="geometry" />
        </mxCell>
        <mxCell id="p1zaCwSeMi8rl18aPiy3-33" value="- schedule: DateTime" style="text;strokeColor=none;fillColor=none;align=left;verticalAlign=top;spacingLeft=4;spacingRight=4;overflow=hidden;rotatable=0;points=[[0,0.5],[1,0.5]];portConstraint=eastwest;whiteSpace=wrap;html=1;" parent="p1zaCwSeMi8rl18aPiy3-29" vertex="1">
          <mxGeometry y="104" width="160" height="26" as="geometry" />
        </mxCell>
        <mxCell id="p1zaCwSeMi8rl18aPiy3-34" value="- capacity: DateTime" style="text;strokeColor=none;fillColor=none;align=left;verticalAlign=top;spacingLeft=4;spacingRight=4;overflow=hidden;rotatable=0;points=[[0,0.5],[1,0.5]];portConstraint=eastwest;whiteSpace=wrap;html=1;" parent="p1zaCwSeMi8rl18aPiy3-29" vertex="1">
          <mxGeometry y="130" width="160" height="26" as="geometry" />
        </mxCell>
        <mxCell id="p1zaCwSeMi8rl18aPiy3-102" value="- type: string" style="text;strokeColor=none;fillColor=none;align=left;verticalAlign=top;spacingLeft=4;spacingRight=4;overflow=hidden;rotatable=0;points=[[0,0.5],[1,0.5]];portConstraint=eastwest;whiteSpace=wrap;html=1;" parent="p1zaCwSeMi8rl18aPiy3-29" vertex="1">
          <mxGeometry y="156" width="160" height="26" as="geometry" />
        </mxCell>
        <mxCell id="bhC0orewa9x7vYe9hUTq-6" value="+ ManageBooking(): void" style="text;strokeColor=none;fillColor=none;align=left;verticalAlign=top;spacingLeft=4;spacingRight=4;overflow=hidden;rotatable=0;points=[[0,0.5],[1,0.5]];portConstraint=eastwest;whiteSpace=wrap;html=1;" parent="p1zaCwSeMi8rl18aPiy3-29" vertex="1">
          <mxGeometry y="182" width="160" height="26" as="geometry" />
        </mxCell>
        <mxCell id="bhC0orewa9x7vYe9hUTq-7" value="+ SendNotification(): void" style="text;strokeColor=none;fillColor=none;align=left;verticalAlign=top;spacingLeft=4;spacingRight=4;overflow=hidden;rotatable=0;points=[[0,0.5],[1,0.5]];portConstraint=eastwest;whiteSpace=wrap;html=1;" parent="p1zaCwSeMi8rl18aPiy3-29" vertex="1">
          <mxGeometry y="208" width="160" height="26" as="geometry" />
        </mxCell>
        <mxCell id="bhC0orewa9x7vYe9hUTq-28" value="" style="endArrow=none;html=1;rounded=0;exitX=0.005;exitY=0.018;exitDx=0;exitDy=0;exitPerimeter=0;entryX=1.007;entryY=1.018;entryDx=0;entryDy=0;entryPerimeter=0;" parent="p1zaCwSeMi8rl18aPiy3-29" source="bhC0orewa9x7vYe9hUTq-6" target="p1zaCwSeMi8rl18aPiy3-102" edge="1">
          <mxGeometry width="50" height="50" relative="1" as="geometry">
            <mxPoint x="70" y="180" as="sourcePoint" />
            <mxPoint x="120" y="130" as="targetPoint" />
          </mxGeometry>
        </mxCell>
        <mxCell id="SJRXmiAUwMmsjrqCZkk9-2" value="+ CheckAvailability(): bool" style="text;strokeColor=none;fillColor=none;align=left;verticalAlign=top;spacingLeft=4;spacingRight=4;overflow=hidden;rotatable=0;points=[[0,0.5],[1,0.5]];portConstraint=eastwest;whiteSpace=wrap;html=1;" parent="p1zaCwSeMi8rl18aPiy3-29" vertex="1">
          <mxGeometry y="234" width="160" height="26" as="geometry" />
        </mxCell>
        <mxCell id="p1zaCwSeMi8rl18aPiy3-35" value="Notification" style="swimlane;fontStyle=0;childLayout=stackLayout;horizontal=1;startSize=26;fillColor=none;horizontalStack=0;resizeParent=1;resizeParentMax=0;resizeLast=0;collapsible=1;marginBottom=0;html=1;" parent="1" vertex="1">
          <mxGeometry x="90" y="1340" width="160" height="208" as="geometry" />
        </mxCell>
        <mxCell id="p1zaCwSeMi8rl18aPiy3-36" value="+ notificationID: uint" style="text;strokeColor=none;fillColor=none;align=left;verticalAlign=top;spacingLeft=4;spacingRight=4;overflow=hidden;rotatable=0;points=[[0,0.5],[1,0.5]];portConstraint=eastwest;whiteSpace=wrap;html=1;" parent="p1zaCwSeMi8rl18aPiy3-35" vertex="1">
          <mxGeometry y="26" width="160" height="26" as="geometry" />
        </mxCell>
        <mxCell id="p1zaCwSeMi8rl18aPiy3-37" value="+ memberID: uint" style="text;strokeColor=none;fillColor=none;align=left;verticalAlign=top;spacingLeft=4;spacingRight=4;overflow=hidden;rotatable=0;points=[[0,0.5],[1,0.5]];portConstraint=eastwest;whiteSpace=wrap;html=1;" parent="p1zaCwSeMi8rl18aPiy3-35" vertex="1">
          <mxGeometry y="52" width="160" height="26" as="geometry" />
        </mxCell>
        <mxCell id="p1zaCwSeMi8rl18aPiy3-95" style="edgeStyle=elbowEdgeStyle;rounded=0;orthogonalLoop=1;jettySize=auto;elbow=vertical;html=1;exitX=0;exitY=0.5;exitDx=0;exitDy=0;" parent="p1zaCwSeMi8rl18aPiy3-35" source="p1zaCwSeMi8rl18aPiy3-38" edge="1">
          <mxGeometry relative="1" as="geometry">
            <mxPoint x="-180" y="91" as="targetPoint" />
          </mxGeometry>
        </mxCell>
        <mxCell id="p1zaCwSeMi8rl18aPiy3-38" value="+ message: string" style="text;strokeColor=none;fillColor=none;align=left;verticalAlign=top;spacingLeft=4;spacingRight=4;overflow=hidden;rotatable=0;points=[[0,0.5],[1,0.5]];portConstraint=eastwest;whiteSpace=wrap;html=1;" parent="p1zaCwSeMi8rl18aPiy3-35" vertex="1">
          <mxGeometry y="78" width="160" height="26" as="geometry" />
        </mxCell>
        <mxCell id="p1zaCwSeMi8rl18aPiy3-39" value="+ dateTime: DateTime" style="text;strokeColor=none;fillColor=none;align=left;verticalAlign=top;spacingLeft=4;spacingRight=4;overflow=hidden;rotatable=0;points=[[0,0.5],[1,0.5]];portConstraint=eastwest;whiteSpace=wrap;html=1;" parent="p1zaCwSeMi8rl18aPiy3-35" vertex="1">
          <mxGeometry y="104" width="160" height="26" as="geometry" />
        </mxCell>
        <mxCell id="p1zaCwSeMi8rl18aPiy3-40" value="+ type: string" style="text;strokeColor=none;fillColor=none;align=left;verticalAlign=top;spacingLeft=4;spacingRight=4;overflow=hidden;rotatable=0;points=[[0,0.5],[1,0.5]];portConstraint=eastwest;whiteSpace=wrap;html=1;" parent="p1zaCwSeMi8rl18aPiy3-35" vertex="1">
          <mxGeometry y="130" width="160" height="26" as="geometry" />
        </mxCell>
        <mxCell id="bhC0orewa9x7vYe9hUTq-5" value="+ SendNotification(): void" style="text;strokeColor=none;fillColor=none;align=left;verticalAlign=top;spacingLeft=4;spacingRight=4;overflow=hidden;rotatable=0;points=[[0,0.5],[1,0.5]];portConstraint=eastwest;whiteSpace=wrap;html=1;" parent="p1zaCwSeMi8rl18aPiy3-35" vertex="1">
          <mxGeometry y="156" width="160" height="26" as="geometry" />
        </mxCell>
        <mxCell id="bhC0orewa9x7vYe9hUTq-27" value="" style="endArrow=none;html=1;rounded=0;exitX=0.001;exitY=-0.011;exitDx=0;exitDy=0;exitPerimeter=0;entryX=0.992;entryY=-0.023;entryDx=0;entryDy=0;entryPerimeter=0;" parent="p1zaCwSeMi8rl18aPiy3-35" source="bhC0orewa9x7vYe9hUTq-5" target="bhC0orewa9x7vYe9hUTq-5" edge="1">
          <mxGeometry width="50" height="50" relative="1" as="geometry">
            <mxPoint x="10" y="140" as="sourcePoint" />
            <mxPoint x="60" y="90" as="targetPoint" />
          </mxGeometry>
        </mxCell>
        <mxCell id="SJRXmiAUwMmsjrqCZkk9-1" value="+ recieveNotification(): void" style="text;strokeColor=none;fillColor=none;align=left;verticalAlign=top;spacingLeft=4;spacingRight=4;overflow=hidden;rotatable=0;points=[[0,0.5],[1,0.5]];portConstraint=eastwest;whiteSpace=wrap;html=1;" parent="p1zaCwSeMi8rl18aPiy3-35" vertex="1">
          <mxGeometry y="182" width="160" height="26" as="geometry" />
        </mxCell>
        <mxCell id="p1zaCwSeMi8rl18aPiy3-47" value="Feedback" style="swimlane;fontStyle=0;childLayout=stackLayout;horizontal=1;startSize=26;fillColor=none;horizontalStack=0;resizeParent=1;resizeParentMax=0;resizeLast=0;collapsible=1;marginBottom=0;html=1;" parent="1" vertex="1">
          <mxGeometry x="-280" y="1200" width="140" height="208" as="geometry" />
        </mxCell>
        <mxCell id="p1zaCwSeMi8rl18aPiy3-48" value="- feedbackID: uint" style="text;strokeColor=none;fillColor=none;align=left;verticalAlign=top;spacingLeft=4;spacingRight=4;overflow=hidden;rotatable=0;points=[[0,0.5],[1,0.5]];portConstraint=eastwest;whiteSpace=wrap;html=1;" parent="p1zaCwSeMi8rl18aPiy3-47" vertex="1">
          <mxGeometry y="26" width="140" height="26" as="geometry" />
        </mxCell>
        <mxCell id="p1zaCwSeMi8rl18aPiy3-49" value="- memberID: uint" style="text;strokeColor=none;fillColor=none;align=left;verticalAlign=top;spacingLeft=4;spacingRight=4;overflow=hidden;rotatable=0;points=[[0,0.5],[1,0.5]];portConstraint=eastwest;whiteSpace=wrap;html=1;" parent="p1zaCwSeMi8rl18aPiy3-47" vertex="1">
          <mxGeometry y="52" width="140" height="26" as="geometry" />
        </mxCell>
        <mxCell id="p1zaCwSeMi8rl18aPiy3-50" value="- text: string" style="text;strokeColor=none;fillColor=none;align=left;verticalAlign=top;spacingLeft=4;spacingRight=4;overflow=hidden;rotatable=0;points=[[0,0.5],[1,0.5]];portConstraint=eastwest;whiteSpace=wrap;html=1;" parent="p1zaCwSeMi8rl18aPiy3-47" vertex="1">
          <mxGeometry y="78" width="140" height="26" as="geometry" />
        </mxCell>
        <mxCell id="p1zaCwSeMi8rl18aPiy3-51" value="- date: DateTime" style="text;strokeColor=none;fillColor=none;align=left;verticalAlign=top;spacingLeft=4;spacingRight=4;overflow=hidden;rotatable=0;points=[[0,0.5],[1,0.5]];portConstraint=eastwest;whiteSpace=wrap;html=1;" parent="p1zaCwSeMi8rl18aPiy3-47" vertex="1">
          <mxGeometry y="104" width="140" height="26" as="geometry" />
        </mxCell>
        <mxCell id="p1zaCwSeMi8rl18aPiy3-52" value="- type: String" style="text;strokeColor=none;fillColor=none;align=left;verticalAlign=top;spacingLeft=4;spacingRight=4;overflow=hidden;rotatable=0;points=[[0,0.5],[1,0.5]];portConstraint=eastwest;whiteSpace=wrap;html=1;" parent="p1zaCwSeMi8rl18aPiy3-47" vertex="1">
          <mxGeometry y="130" width="140" height="26" as="geometry" />
        </mxCell>
        <mxCell id="bhC0orewa9x7vYe9hUTq-15" value="+ StoreFeedback(): void" style="text;strokeColor=none;fillColor=none;align=left;verticalAlign=top;spacingLeft=4;spacingRight=4;overflow=hidden;rotatable=0;points=[[0,0.5],[1,0.5]];portConstraint=eastwest;whiteSpace=wrap;html=1;" parent="p1zaCwSeMi8rl18aPiy3-47" vertex="1">
          <mxGeometry y="156" width="140" height="26" as="geometry" />
        </mxCell>
        <mxCell id="bhC0orewa9x7vYe9hUTq-16" value="+ SendFeedback(): void" style="text;strokeColor=none;fillColor=none;align=left;verticalAlign=top;spacingLeft=4;spacingRight=4;overflow=hidden;rotatable=0;points=[[0,0.5],[1,0.5]];portConstraint=eastwest;whiteSpace=wrap;html=1;" parent="p1zaCwSeMi8rl18aPiy3-47" vertex="1">
          <mxGeometry y="182" width="140" height="26" as="geometry" />
        </mxCell>
        <mxCell id="bhC0orewa9x7vYe9hUTq-29" value="" style="endArrow=none;html=1;rounded=0;exitX=0.007;exitY=1.041;exitDx=0;exitDy=0;exitPerimeter=0;entryX=0.987;entryY=1.03;entryDx=0;entryDy=0;entryPerimeter=0;" parent="p1zaCwSeMi8rl18aPiy3-47" source="p1zaCwSeMi8rl18aPiy3-52" target="p1zaCwSeMi8rl18aPiy3-52" edge="1">
          <mxGeometry width="50" height="50" relative="1" as="geometry">
            <mxPoint x="110" y="140" as="sourcePoint" />
            <mxPoint x="160" y="90" as="targetPoint" />
          </mxGeometry>
        </mxCell>
        <mxCell id="p1zaCwSeMi8rl18aPiy3-41" value="Appointment" style="swimlane;fontStyle=0;childLayout=stackLayout;horizontal=1;startSize=26;fillColor=none;horizontalStack=0;resizeParent=1;resizeParentMax=0;resizeLast=0;collapsible=1;marginBottom=0;html=1;" parent="1" vertex="1">
          <mxGeometry x="-40" y="1590" width="160" height="208" as="geometry" />
        </mxCell>
        <mxCell id="p1zaCwSeMi8rl18aPiy3-42" value="- appointmentID: uint" style="text;strokeColor=none;fillColor=none;align=left;verticalAlign=top;spacingLeft=4;spacingRight=4;overflow=hidden;rotatable=0;points=[[0,0.5],[1,0.5]];portConstraint=eastwest;whiteSpace=wrap;html=1;" parent="p1zaCwSeMi8rl18aPiy3-41" vertex="1">
          <mxGeometry y="26" width="160" height="26" as="geometry" />
        </mxCell>
        <mxCell id="p1zaCwSeMi8rl18aPiy3-43" value="- memberID: uint" style="text;strokeColor=none;fillColor=none;align=left;verticalAlign=top;spacingLeft=4;spacingRight=4;overflow=hidden;rotatable=0;points=[[0,0.5],[1,0.5]];portConstraint=eastwest;whiteSpace=wrap;html=1;" parent="p1zaCwSeMi8rl18aPiy3-41" vertex="1">
          <mxGeometry y="52" width="160" height="26" as="geometry" />
        </mxCell>
        <mxCell id="p1zaCwSeMi8rl18aPiy3-44" value="- specialistID: uint" style="text;strokeColor=none;fillColor=none;align=left;verticalAlign=top;spacingLeft=4;spacingRight=4;overflow=hidden;rotatable=0;points=[[0,0.5],[1,0.5]];portConstraint=eastwest;whiteSpace=wrap;html=1;" parent="p1zaCwSeMi8rl18aPiy3-41" vertex="1">
          <mxGeometry y="78" width="160" height="26" as="geometry" />
        </mxCell>
        <mxCell id="p1zaCwSeMi8rl18aPiy3-45" value="- dateTime: DateTime" style="text;strokeColor=none;fillColor=none;align=left;verticalAlign=top;spacingLeft=4;spacingRight=4;overflow=hidden;rotatable=0;points=[[0,0.5],[1,0.5]];portConstraint=eastwest;whiteSpace=wrap;html=1;" parent="p1zaCwSeMi8rl18aPiy3-41" vertex="1">
          <mxGeometry y="104" width="160" height="26" as="geometry" />
        </mxCell>
        <mxCell id="p1zaCwSeMi8rl18aPiy3-46" value="- type: string" style="text;strokeColor=none;fillColor=none;align=left;verticalAlign=top;spacingLeft=4;spacingRight=4;overflow=hidden;rotatable=0;points=[[0,0.5],[1,0.5]];portConstraint=eastwest;whiteSpace=wrap;html=1;" parent="p1zaCwSeMi8rl18aPiy3-41" vertex="1">
          <mxGeometry y="130" width="160" height="26" as="geometry" />
        </mxCell>
        <mxCell id="bhC0orewa9x7vYe9hUTq-17" value="+ MaintainAppoint(): void" style="text;strokeColor=none;fillColor=none;align=left;verticalAlign=top;spacingLeft=4;spacingRight=4;overflow=hidden;rotatable=0;points=[[0,0.5],[1,0.5]];portConstraint=eastwest;whiteSpace=wrap;html=1;" parent="p1zaCwSeMi8rl18aPiy3-41" vertex="1">
          <mxGeometry y="156" width="160" height="26" as="geometry" />
        </mxCell>
        <mxCell id="bhC0orewa9x7vYe9hUTq-18" value="+ SendAppointNotifi(): void" style="text;strokeColor=none;fillColor=none;align=left;verticalAlign=top;spacingLeft=4;spacingRight=4;overflow=hidden;rotatable=0;points=[[0,0.5],[1,0.5]];portConstraint=eastwest;whiteSpace=wrap;html=1;" parent="p1zaCwSeMi8rl18aPiy3-41" vertex="1">
          <mxGeometry y="182" width="160" height="26" as="geometry" />
        </mxCell>
        <mxCell id="bhC0orewa9x7vYe9hUTq-26" value="" style="endArrow=none;html=1;rounded=0;exitX=0.001;exitY=-0.004;exitDx=0;exitDy=0;exitPerimeter=0;entryX=0.991;entryY=-0.004;entryDx=0;entryDy=0;entryPerimeter=0;" parent="p1zaCwSeMi8rl18aPiy3-41" source="bhC0orewa9x7vYe9hUTq-17" target="bhC0orewa9x7vYe9hUTq-17" edge="1">
          <mxGeometry width="50" height="50" relative="1" as="geometry">
            <mxPoint x="10" y="140" as="sourcePoint" />
            <mxPoint x="60" y="90" as="targetPoint" />
          </mxGeometry>
        </mxCell>
        <mxCell id="p1zaCwSeMi8rl18aPiy3-85" value="" style="edgeStyle=orthogonalEdgeStyle;fontSize=12;html=1;endArrow=ERone;startArrow=block;rounded=0;elbow=vertical;exitX=1;exitY=0.5;exitDx=0;exitDy=0;entryX=0;entryY=0.5;entryDx=0;entryDy=0;startFill=0;endFill=0;" parent="1" source="p1zaCwSeMi8rl18aPiy3-5" target="p1zaCwSeMi8rl18aPiy3-25" edge="1">
          <mxGeometry width="100" height="100" relative="1" as="geometry">
            <mxPoint x="-40" y="1500" as="sourcePoint" />
            <mxPoint x="60" y="1400" as="targetPoint" />
            <Array as="points">
              <mxPoint x="-540" y="1431" />
              <mxPoint x="-540" y="1049" />
            </Array>
          </mxGeometry>
        </mxCell>
        <mxCell id="p1zaCwSeMi8rl18aPiy3-86" value="" style="edgeStyle=elbowEdgeStyle;fontSize=12;html=1;endArrow=ERone;startArrow=block;rounded=0;entryX=-0.004;entryY=0.663;entryDx=0;entryDy=0;startFill=0;endFill=0;entryPerimeter=0;" parent="1" target="p1zaCwSeMi8rl18aPiy3-16" edge="1">
          <mxGeometry width="100" height="100" relative="1" as="geometry">
            <mxPoint x="-650" y="1430" as="sourcePoint" />
            <mxPoint x="-460" y="1710" as="targetPoint" />
            <Array as="points">
              <mxPoint x="-540" y="1560" />
            </Array>
          </mxGeometry>
        </mxCell>
        <mxCell id="p1zaCwSeMi8rl18aPiy3-87" value="" style="edgeStyle=entityRelationEdgeStyle;fontSize=12;html=1;endArrow=ERone;startArrow=block;rounded=0;elbow=vertical;entryX=0;entryY=0.5;entryDx=0;entryDy=0;startFill=0;endFill=0;" parent="1" edge="1">
          <mxGeometry width="100" height="100" relative="1" as="geometry">
            <mxPoint x="-650" y="1430" as="sourcePoint" />
            <mxPoint x="-460" y="1430" as="targetPoint" />
          </mxGeometry>
        </mxCell>
        <mxCell id="p1zaCwSeMi8rl18aPiy3-90" value="" style="edgeStyle=elbowEdgeStyle;fontSize=12;html=1;endArrow=ERmany;startArrow=ERone;rounded=0;entryX=0;entryY=0.5;entryDx=0;entryDy=0;exitX=1;exitY=0.5;exitDx=0;exitDy=0;startFill=0;" parent="1" source="p1zaCwSeMi8rl18aPiy3-11" target="p1zaCwSeMi8rl18aPiy3-44" edge="1">
          <mxGeometry width="100" height="100" relative="1" as="geometry">
            <mxPoint x="-310" y="1460" as="sourcePoint" />
            <mxPoint x="-150" y="1207" as="targetPoint" />
            <Array as="points">
              <mxPoint x="-90" y="1580" />
            </Array>
          </mxGeometry>
        </mxCell>
        <mxCell id="p1zaCwSeMi8rl18aPiy3-94" value="" style="edgeStyle=elbowEdgeStyle;fontSize=12;html=1;endArrow=ERmany;startArrow=ERone;rounded=0;entryX=0;entryY=0.5;entryDx=0;entryDy=0;exitX=1;exitY=0.5;exitDx=0;exitDy=0;startFill=0;" parent="1" source="p1zaCwSeMi8rl18aPiy3-11" target="p1zaCwSeMi8rl18aPiy3-32" edge="1">
          <mxGeometry width="100" height="100" relative="1" as="geometry">
            <mxPoint x="-320" y="1430" as="sourcePoint" />
            <mxPoint x="-150" y="1710" as="targetPoint" />
            <Array as="points">
              <mxPoint x="-90" y="1320" />
            </Array>
          </mxGeometry>
        </mxCell>
        <mxCell id="p1zaCwSeMi8rl18aPiy3-96" value="" style="edgeStyle=elbowEdgeStyle;fontSize=12;html=1;endArrow=ERmany;startArrow=ERone;rounded=0;elbow=vertical;startFill=0;exitX=0.547;exitY=1.06;exitDx=0;exitDy=0;exitPerimeter=0;" parent="1" source="bhC0orewa9x7vYe9hUTq-22" edge="1">
          <mxGeometry width="100" height="100" relative="1" as="geometry">
            <mxPoint x="-380" y="1830" as="sourcePoint" />
            <mxPoint x="43" y="1800" as="targetPoint" />
            <Array as="points">
              <mxPoint x="-160" y="1990" />
            </Array>
          </mxGeometry>
        </mxCell>
        <mxCell id="p1zaCwSeMi8rl18aPiy3-97" value="" style="edgeStyle=elbowEdgeStyle;fontSize=12;html=1;endArrow=ERmany;startArrow=ERone;rounded=0;elbow=vertical;entryX=0.5;entryY=0;entryDx=0;entryDy=0;exitX=0.5;exitY=0;exitDx=0;exitDy=0;startFill=0;" parent="1" source="p1zaCwSeMi8rl18aPiy3-22" target="p1zaCwSeMi8rl18aPiy3-29" edge="1">
          <mxGeometry width="100" height="100" relative="1" as="geometry">
            <mxPoint x="-380" y="874" as="sourcePoint" />
            <mxPoint x="-68" y="876" as="targetPoint" />
            <Array as="points">
              <mxPoint x="-230" y="938" />
            </Array>
          </mxGeometry>
        </mxCell>
        <mxCell id="p1zaCwSeMi8rl18aPiy3-98" value="" style="edgeStyle=elbowEdgeStyle;fontSize=12;html=1;endArrow=ERmany;startArrow=ERone;rounded=0;elbow=vertical;exitX=0.25;exitY=0;exitDx=0;exitDy=0;entryX=0.652;entryY=-0.013;entryDx=0;entryDy=0;startFill=0;entryPerimeter=0;" parent="1" source="p1zaCwSeMi8rl18aPiy3-22" target="p1zaCwSeMi8rl18aPiy3-35" edge="1">
          <mxGeometry width="100" height="100" relative="1" as="geometry">
            <mxPoint x="-380" y="994" as="sourcePoint" />
            <mxPoint x="195.00000000000045" y="1244" as="targetPoint" />
            <Array as="points">
              <mxPoint x="-250" y="894" />
              <mxPoint x="90" y="1184" />
            </Array>
          </mxGeometry>
        </mxCell>
        <mxCell id="p1zaCwSeMi8rl18aPiy3-100" value="" style="edgeStyle=elbowEdgeStyle;fontSize=12;html=1;endArrow=ERmany;startArrow=ERone;rounded=0;elbow=vertical;entryX=0.632;entryY=1.035;entryDx=0;entryDy=0;entryPerimeter=0;startFill=0;exitX=0.293;exitY=1.077;exitDx=0;exitDy=0;exitPerimeter=0;" parent="1" source="bhC0orewa9x7vYe9hUTq-22" target="SJRXmiAUwMmsjrqCZkk9-1" edge="1">
          <mxGeometry width="100" height="100" relative="1" as="geometry">
            <mxPoint x="-420" y="1830" as="sourcePoint" />
            <mxPoint x="208.5400000000003" y="1599.9999999999998" as="targetPoint" />
            <Array as="points">
              <mxPoint x="-120" y="2020" />
              <mxPoint x="245.88" y="2091.01" />
            </Array>
          </mxGeometry>
        </mxCell>
        <mxCell id="p1zaCwSeMi8rl18aPiy3-104" value="" style="edgeStyle=orthogonalEdgeStyle;fontSize=12;html=1;endArrow=ERmany;startArrow=ERone;rounded=0;elbow=vertical;exitX=0.5;exitY=0;exitDx=0;exitDy=0;startFill=0;" parent="1" source="p1zaCwSeMi8rl18aPiy3-9" edge="1">
          <mxGeometry width="100" height="100" relative="1" as="geometry">
            <mxPoint x="-420" y="1356" as="sourcePoint" />
            <mxPoint x="-280" y="1290" as="targetPoint" />
            <Array as="points">
              <mxPoint x="-375" y="1290" />
            </Array>
          </mxGeometry>
        </mxCell>
        <mxCell id="p1zaCwSeMi8rl18aPiy3-105" value="" style="edgeStyle=orthogonalEdgeStyle;fontSize=12;html=1;endArrow=ERmany;startArrow=ERone;rounded=0;elbow=vertical;exitX=0.5;exitY=1;exitDx=0;exitDy=0;startFill=0;" parent="1" source="p1zaCwSeMi8rl18aPiy3-22" edge="1">
          <mxGeometry width="100" height="100" relative="1" as="geometry">
            <mxPoint x="-390" y="1210" as="sourcePoint" />
            <mxPoint x="-280" y="1260" as="targetPoint" />
            <Array as="points">
              <mxPoint x="-375" y="1260" />
            </Array>
          </mxGeometry>
        </mxCell>
        <mxCell id="p1zaCwSeMi8rl18aPiy3-106" value="" style="edgeStyle=orthogonalEdgeStyle;fontSize=12;html=1;endArrow=ERone;startArrow=ERmany;rounded=0;elbow=vertical;strokeColor=default;jumpStyle=arc;jumpSize=8;endFill=0;" parent="1" edge="1">
          <mxGeometry width="100" height="100" relative="1" as="geometry">
            <mxPoint x="-210" y="1408" as="sourcePoint" />
            <mxPoint x="-300" y="1833.030303030303" as="targetPoint" />
            <Array as="points">
              <mxPoint x="-210" y="1833" />
            </Array>
          </mxGeometry>
        </mxCell>
        <mxCell id="p1zaCwSeMi8rl18aPiy3-108" value="&lt;span id=&quot;docs-internal-guid-869c3728-7fff-032e-5e56-321e2e68bcfe&quot;&gt;&lt;span style=&quot;font-size: 11pt; font-family: Aptos; background-color: transparent; font-variant-numeric: normal; font-variant-east-asian: normal; font-variant-alternates: normal; font-variant-position: normal; vertical-align: baseline; white-space-collapse: preserve;&quot;&gt;GymMember&lt;/span&gt;&lt;/span&gt;&lt;span id=&quot;docs-internal-guid-ee7951d7-7fff-c7e2-9328-e0224b42451c&quot;&gt;&lt;span style=&quot;font-size: 11pt; font-family: Aptos; background-color: transparent; font-variant-numeric: normal; font-variant-east-asian: normal; font-variant-alternates: normal; font-variant-position: normal; vertical-align: baseline; white-space-collapse: preserve;&quot;&gt; schedules Appointments&lt;/span&gt;&lt;/span&gt;" style="text;html=1;align=center;verticalAlign=middle;whiteSpace=wrap;rounded=0;" parent="1" vertex="1">
          <mxGeometry x="-80" y="1518" width="150" height="30" as="geometry" />
        </mxCell>
        <mxCell id="p1zaCwSeMi8rl18aPiy3-109" value="&lt;span id=&quot;docs-internal-guid-869c3728-7fff-032e-5e56-321e2e68bcfe&quot;&gt;&lt;span style=&quot;font-size: 11pt; font-family: Aptos; background-color: transparent; font-variant-numeric: normal; font-variant-east-asian: normal; font-variant-alternates: normal; font-variant-position: normal; vertical-align: baseline; white-space-collapse: preserve;&quot;&gt;GymMember books GymSessions&lt;/span&gt;&lt;/span&gt;" style="text;html=1;align=center;verticalAlign=middle;whiteSpace=wrap;rounded=0;" parent="1" vertex="1">
          <mxGeometry x="-80" y="1280" width="120" height="30" as="geometry" />
        </mxCell>
        <mxCell id="p1zaCwSeMi8rl18aPiy3-110" value="&lt;span id=&quot;docs-internal-guid-a3da4393-7fff-4888-42c7-a6ffe34d876b&quot;&gt;&lt;span style=&quot;font-size: 11pt; font-family: Aptos; background-color: transparent; font-variant-numeric: normal; font-variant-east-asian: normal; font-variant-alternates: normal; font-variant-position: normal; vertical-align: baseline; white-space-collapse: preserve;&quot;&gt;Notification is sent to a GymMember&lt;/span&gt;&lt;/span&gt;" style="text;html=1;align=center;verticalAlign=middle;whiteSpace=wrap;rounded=0;" parent="1" vertex="1">
          <mxGeometry x="-80" y="1390" width="130" height="30" as="geometry" />
        </mxCell>
        <mxCell id="p1zaCwSeMi8rl18aPiy3-113" value="&lt;span id=&quot;docs-internal-guid-825f7afa-7fff-8047-d60d-ca1527bcbaf1&quot;&gt;&lt;span style=&quot;font-size: 11pt; font-family: Aptos; background-color: transparent; font-variant-numeric: normal; font-variant-east-asian: normal; font-variant-alternates: normal; font-variant-position: normal; vertical-align: baseline; white-space-collapse: preserve;&quot;&gt;Appointment involves a HealthSpecialist&lt;/span&gt;&lt;/span&gt;" style="text;html=1;align=center;verticalAlign=middle;whiteSpace=wrap;rounded=0;" parent="1" vertex="1">
          <mxGeometry x="-199.12" y="1948" width="90" height="30" as="geometry" />
        </mxCell>
        <mxCell id="p1zaCwSeMi8rl18aPiy3-114" value="&lt;span id=&quot;docs-internal-guid-869c3728-7fff-032e-5e56-321e2e68bcfe&quot;&gt;&lt;span style=&quot;font-size: 11pt; font-family: Aptos; background-color: transparent; font-variant-numeric: normal; font-variant-east-asian: normal; font-variant-alternates: normal; font-variant-position: normal; vertical-align: baseline; white-space-collapse: preserve;&quot;&gt;GymMember give&lt;/span&gt;&lt;/span&gt;&lt;span id=&quot;docs-internal-guid-a9aae6fc-7fff-23d6-9f64-cd1d7878645a&quot;&gt;&lt;span style=&quot;font-size: 11pt; font-family: Aptos; background-color: transparent; font-variant-numeric: normal; font-variant-east-asian: normal; font-variant-alternates: normal; font-variant-position: normal; vertical-align: baseline; white-space-collapse: preserve;&quot;&gt; feedback&lt;/span&gt;&lt;/span&gt;" style="text;html=1;align=center;verticalAlign=middle;whiteSpace=wrap;rounded=0;" parent="1" vertex="1">
          <mxGeometry x="-470" y="1320" width="90" height="30" as="geometry" />
        </mxCell>
        <mxCell id="p1zaCwSeMi8rl18aPiy3-115" value="&lt;span id=&quot;docs-internal-guid-869c3728-7fff-032e-5e56-321e2e68bcfe&quot;&gt;&lt;span style=&quot;font-size: 11pt; font-family: Aptos; background-color: transparent; font-variant-numeric: normal; font-variant-east-asian: normal; font-variant-alternates: normal; font-variant-position: normal; vertical-align: baseline; white-space-collapse: preserve;&quot;&gt;GymSession &lt;span id=&quot;docs-internal-guid-a8809bd5-7fff-e4b6-9dd3-46855f919f1f&quot;&gt;&lt;span style=&quot;font-size: 11pt; background-color: transparent; font-variant-numeric: normal; font-variant-east-asian: normal; font-variant-alternates: normal; font-variant-position: normal; vertical-align: baseline;&quot;&gt;is led by an Instructor&lt;/span&gt;&lt;/span&gt;&lt;/span&gt;&lt;/span&gt;" style="text;html=1;align=center;verticalAlign=middle;whiteSpace=wrap;rounded=0;" parent="1" vertex="1">
          <mxGeometry x="-239.12" y="954" width="130" height="30" as="geometry" />
        </mxCell>
        <mxCell id="p1zaCwSeMi8rl18aPiy3-116" value="&lt;font face=&quot;Aptos&quot;&gt;&lt;span style=&quot;font-size: 14.6667px; white-space-collapse: preserve;&quot;&gt;Account is assigned to an instructor&lt;/span&gt;&lt;/font&gt;" style="text;html=1;align=center;verticalAlign=middle;whiteSpace=wrap;rounded=0;" parent="1" vertex="1">
          <mxGeometry x="-640" y="1184" width="90" height="30" as="geometry" />
        </mxCell>
        <mxCell id="p1zaCwSeMi8rl18aPiy3-117" value="&lt;font face=&quot;Aptos&quot;&gt;&lt;span style=&quot;font-size: 14.6667px; white-space-collapse: preserve;&quot;&gt;Account is assigned to a HealthSpecialist&lt;/span&gt;&lt;/font&gt;" style="text;html=1;align=center;verticalAlign=middle;whiteSpace=wrap;rounded=0;" parent="1" vertex="1">
          <mxGeometry x="-640" y="1600" width="90" height="30" as="geometry" />
        </mxCell>
        <mxCell id="p1zaCwSeMi8rl18aPiy3-118" value="&lt;font face=&quot;Aptos&quot;&gt;&lt;span style=&quot;font-size: 14.6667px; white-space-collapse: preserve;&quot;&gt;Account is assigned to a GymMember&lt;/span&gt;&lt;/font&gt;" style="text;html=1;align=center;verticalAlign=middle;whiteSpace=wrap;rounded=0;" parent="1" vertex="1">
          <mxGeometry x="-640" y="1378" width="90" height="30" as="geometry" />
        </mxCell>
        <mxCell id="p1zaCwSeMi8rl18aPiy3-119" value="&lt;span id=&quot;docs-internal-guid-a9aae6fc-7fff-23d6-9f64-cd1d7878645a&quot;&gt;&lt;span style=&quot;font-size: 11pt; font-family: Aptos; background-color: transparent; font-variant-numeric: normal; font-variant-east-asian: normal; font-variant-alternates: normal; font-variant-position: normal; vertical-align: baseline; white-space-collapse: preserve;&quot;&gt;Feedback is given to instructor&lt;/span&gt;&lt;/span&gt;" style="text;html=1;align=center;verticalAlign=middle;whiteSpace=wrap;rounded=0;" parent="1" vertex="1">
          <mxGeometry x="-470" y="1220" width="90" height="30" as="geometry" />
        </mxCell>
        <mxCell id="p1zaCwSeMi8rl18aPiy3-121" value="&lt;span id=&quot;docs-internal-guid-a9aae6fc-7fff-23d6-9f64-cd1d7878645a&quot;&gt;&lt;span style=&quot;font-size: 11pt; font-family: Aptos; background-color: transparent; font-variant-numeric: normal; font-variant-east-asian: normal; font-variant-alternates: normal; font-variant-position: normal; vertical-align: baseline; white-space-collapse: preserve;&quot;&gt;Feedback is given to HealthSpecialist&lt;/span&gt;&lt;/span&gt;" style="text;html=1;align=center;verticalAlign=middle;whiteSpace=wrap;rounded=0;" parent="1" vertex="1">
          <mxGeometry x="-199.12" y="1650" width="90" height="30" as="geometry" />
        </mxCell>
        <mxCell id="p1zaCwSeMi8rl18aPiy3-122" value="&lt;span id=&quot;docs-internal-guid-a3da4393-7fff-4888-42c7-a6ffe34d876b&quot;&gt;&lt;span style=&quot;font-size: 11pt; font-family: Aptos; background-color: transparent; font-variant-numeric: normal; font-variant-east-asian: normal; font-variant-alternates: normal; font-variant-position: normal; vertical-align: baseline; white-space-collapse: preserve;&quot;&gt;Notification is sent to an Instructor&lt;/span&gt;&lt;/span&gt;" style="text;html=1;align=center;verticalAlign=middle;whiteSpace=wrap;rounded=0;" parent="1" vertex="1">
          <mxGeometry x="-160" y="854" width="130" height="30" as="geometry" />
        </mxCell>
        <mxCell id="p1zaCwSeMi8rl18aPiy3-123" value="&lt;span id=&quot;docs-internal-guid-a3da4393-7fff-4888-42c7-a6ffe34d876b&quot;&gt;&lt;span style=&quot;font-size: 11pt; font-family: Aptos; background-color: transparent; font-variant-numeric: normal; font-variant-east-asian: normal; font-variant-alternates: normal; font-variant-position: normal; vertical-align: baseline; white-space-collapse: preserve;&quot;&gt;Notification is sent to a HealthSpecialist&lt;/span&gt;&lt;/span&gt;" style="text;html=1;align=center;verticalAlign=middle;whiteSpace=wrap;rounded=0;" parent="1" vertex="1">
          <mxGeometry x="-219.12" y="2030" width="130" height="30" as="geometry" />
        </mxCell>
        <mxCell id="43oyPOmqAz9Ya_pwtvNG-1" value="Membership" style="swimlane;fontStyle=0;childLayout=stackLayout;horizontal=1;startSize=26;fillColor=none;horizontalStack=0;resizeParent=1;resizeParentMax=0;resizeLast=0;collapsible=1;marginBottom=0;html=1;" parent="1" vertex="1">
          <mxGeometry x="-470" y="1620" width="170" height="130" as="geometry" />
        </mxCell>
        <mxCell id="43oyPOmqAz9Ya_pwtvNG-2" value="- membershipID: uint" style="text;strokeColor=none;fillColor=none;align=left;verticalAlign=top;spacingLeft=4;spacingRight=4;overflow=hidden;rotatable=0;points=[[0,0.5],[1,0.5]];portConstraint=eastwest;whiteSpace=wrap;html=1;" parent="43oyPOmqAz9Ya_pwtvNG-1" vertex="1">
          <mxGeometry y="26" width="170" height="26" as="geometry" />
        </mxCell>
        <mxCell id="43oyPOmqAz9Ya_pwtvNG-3" value="- membershipType: string" style="text;strokeColor=none;fillColor=none;align=left;verticalAlign=top;spacingLeft=4;spacingRight=4;overflow=hidden;rotatable=0;points=[[0,0.5],[1,0.5]];portConstraint=eastwest;whiteSpace=wrap;html=1;" parent="43oyPOmqAz9Ya_pwtvNG-1" vertex="1">
          <mxGeometry y="52" width="170" height="26" as="geometry" />
        </mxCell>
        <mxCell id="43oyPOmqAz9Ya_pwtvNG-10" value="- membershipState: string" style="text;strokeColor=none;fillColor=none;align=left;verticalAlign=top;spacingLeft=4;spacingRight=4;overflow=hidden;rotatable=0;points=[[0,0.5],[1,0.5]];portConstraint=eastwest;whiteSpace=wrap;html=1;" parent="43oyPOmqAz9Ya_pwtvNG-1" vertex="1">
          <mxGeometry y="78" width="170" height="26" as="geometry" />
        </mxCell>
        <mxCell id="43oyPOmqAz9Ya_pwtvNG-11" value="+ ManageMembership(): void" style="text;strokeColor=none;fillColor=none;align=left;verticalAlign=top;spacingLeft=4;spacingRight=4;overflow=hidden;rotatable=0;points=[[0,0.5],[1,0.5]];portConstraint=eastwest;whiteSpace=wrap;html=1;" parent="43oyPOmqAz9Ya_pwtvNG-1" vertex="1">
          <mxGeometry y="104" width="170" height="26" as="geometry" />
        </mxCell>
        <mxCell id="43oyPOmqAz9Ya_pwtvNG-12" value="" style="endArrow=none;html=1;rounded=0;exitX=-0.001;exitY=1.061;exitDx=0;exitDy=0;exitPerimeter=0;entryX=1.002;entryY=1.066;entryDx=0;entryDy=0;entryPerimeter=0;" parent="43oyPOmqAz9Ya_pwtvNG-1" source="43oyPOmqAz9Ya_pwtvNG-10" target="43oyPOmqAz9Ya_pwtvNG-10" edge="1">
          <mxGeometry width="50" height="50" relative="1" as="geometry">
            <mxPoint x="300" y="72.99000000000001" as="sourcePoint" />
            <mxPoint x="350" y="22.99000000000001" as="targetPoint" />
          </mxGeometry>
        </mxCell>
        <mxCell id="dZ--4agDL1cI0zNSuIaq-1" value="" style="fontSize=12;html=1;endArrow=ERone;startArrow=ERone;rounded=0;elbow=vertical;entryX=0.52;entryY=0.987;entryDx=0;entryDy=0;entryPerimeter=0;exitX=0.578;exitY=0.008;exitDx=0;exitDy=0;exitPerimeter=0;startFill=0;endFill=0;" parent="1" source="43oyPOmqAz9Ya_pwtvNG-1" target="bhC0orewa9x7vYe9hUTq-4" edge="1">
          <mxGeometry width="100" height="100" relative="1" as="geometry">
            <mxPoint x="-360" y="1750" as="sourcePoint" />
            <mxPoint x="-260" y="1650" as="targetPoint" />
          </mxGeometry>
        </mxCell>
        <mxCell id="dZ--4agDL1cI0zNSuIaq-2" value="&lt;span id=&quot;docs-internal-guid-a9aae6fc-7fff-23d6-9f64-cd1d7878645a&quot;&gt;&lt;span style=&quot;font-size: 11pt; font-family: Aptos; background-color: transparent; font-variant-numeric: normal; font-variant-east-asian: normal; font-variant-alternates: normal; font-variant-position: normal; vertical-align: baseline; white-space-collapse: preserve;&quot;&gt;Membership is&lt;/span&gt;&lt;/span&gt;&lt;div&gt;&lt;span&gt;&lt;span style=&quot;font-size: 11pt; font-family: Aptos; background-color: transparent; font-variant-numeric: normal; font-variant-east-asian: normal; font-variant-alternates: normal; font-variant-position: normal; vertical-align: baseline; white-space-collapse: preserve;&quot;&gt;given to&lt;/span&gt;&lt;/span&gt;&lt;/div&gt;&lt;div&gt;&lt;span&gt;&lt;span style=&quot;font-size: 11pt; font-family: Aptos; background-color: transparent; font-variant-numeric: normal; font-variant-east-asian: normal; font-variant-alternates: normal; font-variant-position: normal; vertical-align: baseline; white-space-collapse: preserve;&quot;&gt;GymMember&lt;/span&gt;&lt;/span&gt;&lt;/div&gt;" style="text;html=1;align=center;verticalAlign=middle;whiteSpace=wrap;rounded=0;" parent="1" vertex="1">
          <mxGeometry x="-360" y="1570" width="90" height="30" as="geometry" />
        </mxCell>
        <mxCell id="l26q67b1umc1ET3rgI5A-1" value="GymMember" style="swimlane;fontStyle=0;childLayout=stackLayout;horizontal=1;startSize=26;fillColor=#A6A6A6;horizontalStack=0;resizeParent=1;resizeParentMax=0;resizeLast=0;collapsible=1;marginBottom=0;html=1;strokeColor=#666666;rounded=1;align=center;verticalAlign=middle;fontFamily=Helvetica;fontSize=12;fontColor=#333333;" vertex="1" parent="1">
          <mxGeometry x="880" y="1098" width="170" height="182" as="geometry" />
        </mxCell>
        <mxCell id="l26q67b1umc1ET3rgI5A-2" value="- memberID: uint" style="text;strokeColor=none;fillColor=none;align=left;verticalAlign=top;spacingLeft=4;spacingRight=4;overflow=hidden;rotatable=0;points=[[0,0.5],[1,0.5]];portConstraint=eastwest;whiteSpace=wrap;html=1;fontFamily=Helvetica;fontSize=12;fontColor=#333333;fontStyle=0;" vertex="1" parent="l26q67b1umc1ET3rgI5A-1">
          <mxGeometry y="26" width="170" height="26" as="geometry" />
        </mxCell>
        <mxCell id="l26q67b1umc1ET3rgI5A-3" value="- memberShip: string" style="text;strokeColor=none;fillColor=none;align=left;verticalAlign=top;spacingLeft=4;spacingRight=4;overflow=hidden;rotatable=0;points=[[0,0.5],[1,0.5]];portConstraint=eastwest;whiteSpace=wrap;html=1;fontFamily=Helvetica;fontSize=12;fontColor=#333333;fontStyle=0;" vertex="1" parent="l26q67b1umc1ET3rgI5A-1">
          <mxGeometry y="52" width="170" height="26" as="geometry" />
        </mxCell>
        <mxCell id="l26q67b1umc1ET3rgI5A-4" value="+ BookSession(class id): void" style="text;strokeColor=none;fillColor=none;align=left;verticalAlign=top;spacingLeft=4;spacingRight=4;overflow=hidden;rotatable=0;points=[[0,0.5],[1,0.5]];portConstraint=eastwest;whiteSpace=wrap;html=1;fontFamily=Helvetica;fontSize=12;fontColor=#333333;fontStyle=0;" vertex="1" parent="l26q67b1umc1ET3rgI5A-1">
          <mxGeometry y="78" width="170" height="26" as="geometry" />
        </mxCell>
        <mxCell id="l26q67b1umc1ET3rgI5A-5" value="+ SchedApp(appointID): void" style="text;strokeColor=none;fillColor=none;align=left;verticalAlign=top;spacingLeft=4;spacingRight=4;overflow=hidden;rotatable=0;points=[[0,0.5],[1,0.5]];portConstraint=eastwest;whiteSpace=wrap;html=1;fontFamily=Helvetica;fontSize=12;fontColor=#333333;fontStyle=0;" vertex="1" parent="l26q67b1umc1ET3rgI5A-1">
          <mxGeometry y="104" width="170" height="26" as="geometry" />
        </mxCell>
        <mxCell id="l26q67b1umc1ET3rgI5A-6" value="+ ReceiveNotif(): void" style="text;strokeColor=none;fillColor=none;align=left;verticalAlign=top;spacingLeft=4;spacingRight=4;overflow=hidden;rotatable=0;points=[[0,0.5],[1,0.5]];portConstraint=eastwest;whiteSpace=wrap;html=1;fontFamily=Helvetica;fontSize=12;fontColor=#333333;fontStyle=0;" vertex="1" parent="l26q67b1umc1ET3rgI5A-1">
          <mxGeometry y="130" width="170" height="26" as="geometry" />
        </mxCell>
        <mxCell id="l26q67b1umc1ET3rgI5A-7" value="+ ProvideFeedback():voiod" style="text;strokeColor=none;fillColor=none;align=left;verticalAlign=top;spacingLeft=4;spacingRight=4;overflow=hidden;rotatable=0;points=[[0,0.5],[1,0.5]];portConstraint=eastwest;whiteSpace=wrap;html=1;fontFamily=Helvetica;fontSize=12;fontColor=#333333;fontStyle=0;" vertex="1" parent="l26q67b1umc1ET3rgI5A-1">
          <mxGeometry y="156" width="170" height="26" as="geometry" />
        </mxCell>
        <mxCell id="l26q67b1umc1ET3rgI5A-8" value="" style="endArrow=none;html=1;rounded=1;entryX=1.003;entryY=-0.051;entryDx=0;entryDy=0;entryPerimeter=0;exitX=0.004;exitY=-0.085;exitDx=0;exitDy=0;exitPerimeter=0;strokeColor=#666666;align=center;verticalAlign=middle;fontFamily=Helvetica;fontSize=12;fontColor=#333333;fontStyle=0;startSize=26;fillColor=#A6A6A6;" edge="1" parent="l26q67b1umc1ET3rgI5A-1" source="l26q67b1umc1ET3rgI5A-4" target="l26q67b1umc1ET3rgI5A-4">
          <mxGeometry width="50" height="50" relative="1" as="geometry">
            <mxPoint y="164" as="sourcePoint" />
            <mxPoint x="50" y="114" as="targetPoint" />
          </mxGeometry>
        </mxCell>
        <mxCell id="l26q67b1umc1ET3rgI5A-9" value="GymSessions" style="swimlane;fontStyle=0;childLayout=stackLayout;horizontal=1;startSize=26;fillColor=#A6A6A6;horizontalStack=0;resizeParent=1;resizeParentMax=0;resizeLast=0;collapsible=1;marginBottom=0;html=1;rounded=1;strokeColor=#666666;align=center;verticalAlign=middle;fontFamily=Helvetica;fontSize=12;fontColor=#333333;" vertex="1" parent="1">
          <mxGeometry x="680" y="1320" width="160" height="260" as="geometry" />
        </mxCell>
        <mxCell id="l26q67b1umc1ET3rgI5A-10" value="- classID: uint" style="text;strokeColor=none;fillColor=none;align=left;verticalAlign=top;spacingLeft=4;spacingRight=4;overflow=hidden;rotatable=0;points=[[0,0.5],[1,0.5]];portConstraint=eastwest;whiteSpace=wrap;html=1;fontFamily=Helvetica;fontSize=12;fontColor=#333333;fontStyle=0;" vertex="1" parent="l26q67b1umc1ET3rgI5A-9">
          <mxGeometry y="26" width="160" height="26" as="geometry" />
        </mxCell>
        <mxCell id="l26q67b1umc1ET3rgI5A-11" value="- className: string" style="text;strokeColor=none;fillColor=none;align=left;verticalAlign=top;spacingLeft=4;spacingRight=4;overflow=hidden;rotatable=0;points=[[0,0.5],[1,0.5]];portConstraint=eastwest;whiteSpace=wrap;html=1;fontFamily=Helvetica;fontSize=12;fontColor=#333333;fontStyle=0;" vertex="1" parent="l26q67b1umc1ET3rgI5A-9">
          <mxGeometry y="52" width="160" height="26" as="geometry" />
        </mxCell>
        <mxCell id="l26q67b1umc1ET3rgI5A-12" value="- instructorID: uint" style="text;strokeColor=none;fillColor=none;align=left;verticalAlign=top;spacingLeft=4;spacingRight=4;overflow=hidden;rotatable=0;points=[[0,0.5],[1,0.5]];portConstraint=eastwest;whiteSpace=wrap;html=1;fontFamily=Helvetica;fontSize=12;fontColor=#333333;fontStyle=0;" vertex="1" parent="l26q67b1umc1ET3rgI5A-9">
          <mxGeometry y="78" width="160" height="26" as="geometry" />
        </mxCell>
        <mxCell id="l26q67b1umc1ET3rgI5A-13" value="- schedule: DateTime" style="text;strokeColor=none;fillColor=none;align=left;verticalAlign=top;spacingLeft=4;spacingRight=4;overflow=hidden;rotatable=0;points=[[0,0.5],[1,0.5]];portConstraint=eastwest;whiteSpace=wrap;html=1;fontFamily=Helvetica;fontSize=12;fontColor=#333333;fontStyle=0;" vertex="1" parent="l26q67b1umc1ET3rgI5A-9">
          <mxGeometry y="104" width="160" height="26" as="geometry" />
        </mxCell>
        <mxCell id="l26q67b1umc1ET3rgI5A-14" value="- capacity: DateTime" style="text;strokeColor=none;fillColor=none;align=left;verticalAlign=top;spacingLeft=4;spacingRight=4;overflow=hidden;rotatable=0;points=[[0,0.5],[1,0.5]];portConstraint=eastwest;whiteSpace=wrap;html=1;fontFamily=Helvetica;fontSize=12;fontColor=#333333;fontStyle=0;" vertex="1" parent="l26q67b1umc1ET3rgI5A-9">
          <mxGeometry y="130" width="160" height="26" as="geometry" />
        </mxCell>
        <mxCell id="l26q67b1umc1ET3rgI5A-15" value="- type: string" style="text;strokeColor=none;fillColor=none;align=left;verticalAlign=top;spacingLeft=4;spacingRight=4;overflow=hidden;rotatable=0;points=[[0,0.5],[1,0.5]];portConstraint=eastwest;whiteSpace=wrap;html=1;fontFamily=Helvetica;fontSize=12;fontColor=#333333;fontStyle=0;" vertex="1" parent="l26q67b1umc1ET3rgI5A-9">
          <mxGeometry y="156" width="160" height="26" as="geometry" />
        </mxCell>
        <mxCell id="l26q67b1umc1ET3rgI5A-16" value="+ ManageBooking(): void" style="text;strokeColor=none;fillColor=none;align=left;verticalAlign=top;spacingLeft=4;spacingRight=4;overflow=hidden;rotatable=0;points=[[0,0.5],[1,0.5]];portConstraint=eastwest;whiteSpace=wrap;html=1;fontFamily=Helvetica;fontSize=12;fontColor=#333333;fontStyle=0;" vertex="1" parent="l26q67b1umc1ET3rgI5A-9">
          <mxGeometry y="182" width="160" height="26" as="geometry" />
        </mxCell>
        <mxCell id="l26q67b1umc1ET3rgI5A-17" value="+ SendNotification(): void" style="text;strokeColor=none;fillColor=none;align=left;verticalAlign=top;spacingLeft=4;spacingRight=4;overflow=hidden;rotatable=0;points=[[0,0.5],[1,0.5]];portConstraint=eastwest;whiteSpace=wrap;html=1;fontFamily=Helvetica;fontSize=12;fontColor=#333333;fontStyle=0;" vertex="1" parent="l26q67b1umc1ET3rgI5A-9">
          <mxGeometry y="208" width="160" height="26" as="geometry" />
        </mxCell>
        <mxCell id="l26q67b1umc1ET3rgI5A-18" value="" style="endArrow=none;html=1;rounded=1;exitX=0.005;exitY=0.018;exitDx=0;exitDy=0;exitPerimeter=0;entryX=1.007;entryY=1.018;entryDx=0;entryDy=0;entryPerimeter=0;strokeColor=#666666;align=center;verticalAlign=middle;fontFamily=Helvetica;fontSize=12;fontColor=#333333;fontStyle=0;startSize=26;fillColor=#A6A6A6;" edge="1" parent="l26q67b1umc1ET3rgI5A-9" source="l26q67b1umc1ET3rgI5A-16" target="l26q67b1umc1ET3rgI5A-15">
          <mxGeometry width="50" height="50" relative="1" as="geometry">
            <mxPoint x="70" y="180" as="sourcePoint" />
            <mxPoint x="120" y="130" as="targetPoint" />
          </mxGeometry>
        </mxCell>
        <mxCell id="l26q67b1umc1ET3rgI5A-19" value="+ CheckAvailability(): bool" style="text;strokeColor=none;fillColor=none;align=left;verticalAlign=top;spacingLeft=4;spacingRight=4;overflow=hidden;rotatable=0;points=[[0,0.5],[1,0.5]];portConstraint=eastwest;whiteSpace=wrap;html=1;fontFamily=Helvetica;fontSize=12;fontColor=#333333;fontStyle=0;" vertex="1" parent="l26q67b1umc1ET3rgI5A-9">
          <mxGeometry y="234" width="160" height="26" as="geometry" />
        </mxCell>
        <mxCell id="l26q67b1umc1ET3rgI5A-20" value="&lt;b&gt;Appointment&lt;/b&gt;" style="swimlane;fontStyle=0;childLayout=stackLayout;horizontal=1;startSize=26;fillColor=#A6A6A6;horizontalStack=0;resizeParent=1;resizeParentMax=0;resizeLast=0;collapsible=1;marginBottom=0;html=1;fontColor=#333333;strokeColor=#666666;rounded=1;" vertex="1" parent="1">
          <mxGeometry x="1090" y="1320" width="160" height="208" as="geometry" />
        </mxCell>
        <mxCell id="l26q67b1umc1ET3rgI5A-21" value="- appointmentID: uint" style="text;strokeColor=none;fillColor=none;align=left;verticalAlign=top;spacingLeft=4;spacingRight=4;overflow=hidden;rotatable=0;points=[[0,0.5],[1,0.5]];portConstraint=eastwest;whiteSpace=wrap;html=1;" vertex="1" parent="l26q67b1umc1ET3rgI5A-20">
          <mxGeometry y="26" width="160" height="26" as="geometry" />
        </mxCell>
        <mxCell id="l26q67b1umc1ET3rgI5A-22" value="- memberID: uint" style="text;strokeColor=none;fillColor=none;align=left;verticalAlign=top;spacingLeft=4;spacingRight=4;overflow=hidden;rotatable=0;points=[[0,0.5],[1,0.5]];portConstraint=eastwest;whiteSpace=wrap;html=1;" vertex="1" parent="l26q67b1umc1ET3rgI5A-20">
          <mxGeometry y="52" width="160" height="26" as="geometry" />
        </mxCell>
        <mxCell id="l26q67b1umc1ET3rgI5A-23" value="- specialistID: uint" style="text;strokeColor=none;fillColor=none;align=left;verticalAlign=top;spacingLeft=4;spacingRight=4;overflow=hidden;rotatable=0;points=[[0,0.5],[1,0.5]];portConstraint=eastwest;whiteSpace=wrap;html=1;" vertex="1" parent="l26q67b1umc1ET3rgI5A-20">
          <mxGeometry y="78" width="160" height="26" as="geometry" />
        </mxCell>
        <mxCell id="l26q67b1umc1ET3rgI5A-24" value="- dateTime: DateTime" style="text;strokeColor=none;fillColor=none;align=left;verticalAlign=top;spacingLeft=4;spacingRight=4;overflow=hidden;rotatable=0;points=[[0,0.5],[1,0.5]];portConstraint=eastwest;whiteSpace=wrap;html=1;" vertex="1" parent="l26q67b1umc1ET3rgI5A-20">
          <mxGeometry y="104" width="160" height="26" as="geometry" />
        </mxCell>
        <mxCell id="l26q67b1umc1ET3rgI5A-25" value="- type: string" style="text;strokeColor=none;fillColor=none;align=left;verticalAlign=top;spacingLeft=4;spacingRight=4;overflow=hidden;rotatable=0;points=[[0,0.5],[1,0.5]];portConstraint=eastwest;whiteSpace=wrap;html=1;" vertex="1" parent="l26q67b1umc1ET3rgI5A-20">
          <mxGeometry y="130" width="160" height="26" as="geometry" />
        </mxCell>
        <mxCell id="l26q67b1umc1ET3rgI5A-26" value="+ MaintainAppoint(): void" style="text;strokeColor=none;fillColor=none;align=left;verticalAlign=top;spacingLeft=4;spacingRight=4;overflow=hidden;rotatable=0;points=[[0,0.5],[1,0.5]];portConstraint=eastwest;whiteSpace=wrap;html=1;" vertex="1" parent="l26q67b1umc1ET3rgI5A-20">
          <mxGeometry y="156" width="160" height="26" as="geometry" />
        </mxCell>
        <mxCell id="l26q67b1umc1ET3rgI5A-27" value="+ SendAppointNotifi(): void" style="text;strokeColor=none;fillColor=none;align=left;verticalAlign=top;spacingLeft=4;spacingRight=4;overflow=hidden;rotatable=0;points=[[0,0.5],[1,0.5]];portConstraint=eastwest;whiteSpace=wrap;html=1;" vertex="1" parent="l26q67b1umc1ET3rgI5A-20">
          <mxGeometry y="182" width="160" height="26" as="geometry" />
        </mxCell>
        <mxCell id="l26q67b1umc1ET3rgI5A-28" value="" style="endArrow=none;html=1;rounded=0;exitX=0.001;exitY=-0.004;exitDx=0;exitDy=0;exitPerimeter=0;entryX=0.991;entryY=-0.004;entryDx=0;entryDy=0;entryPerimeter=0;" edge="1" parent="l26q67b1umc1ET3rgI5A-20" source="l26q67b1umc1ET3rgI5A-26" target="l26q67b1umc1ET3rgI5A-26">
          <mxGeometry width="50" height="50" relative="1" as="geometry">
            <mxPoint x="10" y="140" as="sourcePoint" />
            <mxPoint x="60" y="90" as="targetPoint" />
          </mxGeometry>
        </mxCell>
        <mxCell id="l26q67b1umc1ET3rgI5A-29" value="" style="edgeStyle=orthogonalEdgeStyle;fontSize=12;html=1;endArrow=ERmany;startArrow=ERone;rounded=0;elbow=vertical;startFill=0;entryX=0;entryY=0.5;entryDx=0;entryDy=0;exitX=0.5;exitY=0;exitDx=0;exitDy=0;" edge="1" parent="1" source="l26q67b1umc1ET3rgI5A-9" target="l26q67b1umc1ET3rgI5A-4">
          <mxGeometry width="100" height="100" relative="1" as="geometry">
            <mxPoint x="650" y="1310" as="sourcePoint" />
            <mxPoint x="745" y="1204" as="targetPoint" />
            <Array as="points">
              <mxPoint x="760" y="1189" />
            </Array>
          </mxGeometry>
        </mxCell>
        <mxCell id="l26q67b1umc1ET3rgI5A-30" value="" style="edgeStyle=orthogonalEdgeStyle;fontSize=12;html=1;endArrow=ERmany;startArrow=ERone;rounded=0;elbow=vertical;startFill=0;entryX=1;entryY=0.5;entryDx=0;entryDy=0;exitX=0.5;exitY=0;exitDx=0;exitDy=0;" edge="1" parent="1" source="l26q67b1umc1ET3rgI5A-20" target="l26q67b1umc1ET3rgI5A-4">
          <mxGeometry width="100" height="100" relative="1" as="geometry">
            <mxPoint x="1100" y="1300" as="sourcePoint" />
            <mxPoint x="1277" y="1208" as="targetPoint" />
            <Array as="points">
              <mxPoint x="1170" y="1190" />
              <mxPoint x="1090" y="1190" />
            </Array>
          </mxGeometry>
        </mxCell>
        <mxCell id="l26q67b1umc1ET3rgI5A-31" value="&lt;span id=&quot;docs-internal-guid-869c3728-7fff-032e-5e56-321e2e68bcfe&quot;&gt;&lt;span style=&quot;font-size: 11pt; font-family: Aptos; background-color: transparent; font-variant-numeric: normal; font-variant-east-asian: normal; font-variant-alternates: normal; font-variant-position: normal; vertical-align: baseline; white-space-collapse: preserve;&quot;&gt;GymMember Book, reschedule and cancel GymSessions&lt;/span&gt;&lt;/span&gt;" style="text;html=1;align=center;verticalAlign=middle;whiteSpace=wrap;rounded=0;" vertex="1" parent="1">
          <mxGeometry x="630" y="1200" width="120" height="30" as="geometry" />
        </mxCell>
        <mxCell id="l26q67b1umc1ET3rgI5A-32" value="&lt;span id=&quot;docs-internal-guid-869c3728-7fff-032e-5e56-321e2e68bcfe&quot;&gt;&lt;span style=&quot;font-size: 11pt; font-family: Aptos; background-color: transparent; font-variant-numeric: normal; font-variant-east-asian: normal; font-variant-alternates: normal; font-variant-position: normal; vertical-align: baseline; white-space-collapse: preserve;&quot;&gt;GymMember Book, reschedule and cancel Appointments&lt;/span&gt;&lt;/span&gt;" style="text;html=1;align=center;verticalAlign=middle;whiteSpace=wrap;rounded=0;" vertex="1" parent="1">
          <mxGeometry x="1190" y="1200" width="120" height="30" as="geometry" />
        </mxCell>
      </root>
    </mxGraphModel>
  </diagram>
</mxfile>
